<svg class="plot-d6a7b5" fill="currentColor" font-family="system-ui, sans-serif" font-size="10" text-anchor="middle" width="900" height="400" viewBox="0 0 900 400" xmlns="http://www.w3.org/2000/svg" xmlns:xlink="http://www.w3.org/1999/xlink"><style>:where(.plot-d6a7b5) {
  --plot-background: white;
  display: block;
  height: auto;
  height: intrinsic;
  max-width: 100%;
}
:where(.plot-d6a7b5 text),
:where(.plot-d6a7b5 tspan) {
  white-space: pre;
}</style><g aria-label="y-grid" aria-hidden="true" stroke="currentColor" stroke-opacity="0.1"><line x1="40" x2="880" y1="370" y2="370"></line><line x1="40" x2="880" y1="346.66666666666663" y2="346.66666666666663"></line><line x1="40" x2="880" y1="323.33333333333337" y2="323.33333333333337"></line><line x1="40" x2="880" y1="300" y2="300"></line><line x1="40" x2="880" y1="276.6666666666667" y2="276.6666666666667"></line><line x1="40" x2="880" y1="253.33333333333334" y2="253.33333333333334"></line><line x1="40" x2="880" y1="230.00000000000003" y2="230.00000000000003"></line><line x1="40" x2="880" y1="206.6666666666667" y2="206.6666666666667"></line><line x1="40" x2="880" y1="183.33333333333331" y2="183.33333333333331"></line><line x1="40" x2="880" y1="160" y2="160"></line><line x1="40" x2="880" y1="136.66666666666669" y2="136.66666666666669"></line><line x1="40" x2="880" y1="113.33333333333331" y2="113.33333333333331"></line><line x1="40" x2="880" y1="90.00000000000003" y2="90.00000000000003"></line><line x1="40" x2="880" y1="66.66666666666666" y2="66.66666666666666"></line><line x1="40" x2="880" y1="43.33333333333337" y2="43.33333333333337"></line><line x1="40" x2="880" y1="20" y2="20"></line></g><g aria-label="y-axis tick" aria-hidden="true" fill="none" stroke="currentColor"><path transform="translate(40,370)" d="M0,0L-6,0"></path><path transform="translate(40,346.66666666666663)" d="M0,0L-6,0"></path><path transform="translate(40,323.33333333333337)" d="M0,0L-6,0"></path><path transform="translate(40,300)" d="M0,0L-6,0"></path><path transform="translate(40,276.6666666666667)" d="M0,0L-6,0"></path><path transform="translate(40,253.33333333333334)" d="M0,0L-6,0"></path><path transform="translate(40,230.00000000000003)" d="M0,0L-6,0"></path><path transform="translate(40,206.6666666666667)" d="M0,0L-6,0"></path><path transform="translate(40,183.33333333333331)" d="M0,0L-6,0"></path><path transform="translate(40,160)" d="M0,0L-6,0"></path><path transform="translate(40,136.66666666666669)" d="M0,0L-6,0"></path><path transform="translate(40,113.33333333333331)" d="M0,0L-6,0"></path><path transform="translate(40,90.00000000000003)" d="M0,0L-6,0"></path><path transform="translate(40,66.66666666666666)" d="M0,0L-6,0"></path><path transform="translate(40,43.33333333333337)" d="M0,0L-6,0"></path><path transform="translate(40,20)" d="M0,0L-6,0"></path></g><g aria-label="y-axis tick label" text-anchor="end" font-variant="tabular-nums" transform="translate(-9,0)"><text y="0.32em" transform="translate(40,370)">0</text><text y="0.32em" transform="translate(40,346.66666666666663)"></text><text y="0.32em" transform="translate(40,323.33333333333337)"></text><text y="0.32em" transform="translate(40,300)"></text><text y="0.32em" transform="translate(40,276.6666666666667)"></text><text y="0.32em" transform="translate(40,253.33333333333334)">1</text><text y="0.32em" transform="translate(40,230.00000000000003)"></text><text y="0.32em" transform="translate(40,206.6666666666667)"></text><text y="0.32em" transform="translate(40,183.33333333333331)"></text><text y="0.32em" transform="translate(40,160)"></text><text y="0.32em" transform="translate(40,136.66666666666669)">2</text><text y="0.32em" transform="translate(40,113.33333333333331)"></text><text y="0.32em" transform="translate(40,90.00000000000003)"></text><text y="0.32em" transform="translate(40,66.66666666666666)"></text><text y="0.32em" transform="translate(40,43.33333333333337)"></text><text y="0.32em" transform="translate(40,20)">3</text></g><g aria-label="x-axis tick" aria-hidden="true" fill="none" stroke="currentColor"><path transform="translate(90.28571428571429,370)" d="M0,0L0,6"></path><path transform="translate(194.28571428571428,370)" d="M0,0L0,6"></path><path transform="translate(298.2857142857143,370)" d="M0,0L0,6"></path><path transform="translate(403.42857142857144,370)" d="M0,0L0,6"></path><path transform="translate(508.57142857142856,370)" d="M0,0L0,6"></path><path transform="translate(611.4285714285714,370)" d="M0,0L0,6"></path><path transform="translate(715.4285714285714,370)" d="M0,0L0,6"></path><path transform="translate(820.5714285714286,370)" d="M0,0L0,6"></path></g><g aria-label="x-axis tick label" font-variant="tabular-nums" transform="translate(0,9)"><text transform="translate(90.28571428571429,370)"><tspan x="0" y="0.71em">Jan</tspan><tspan x="0" dy="1em">2024</tspan></text><text y="0.71em" transform="translate(194.28571428571428,370)">Apr</text><text y="0.71em" transform="translate(298.2857142857143,370)">Jul</text><text y="0.71em" transform="translate(403.42857142857144,370)">Oct</text><text transform="translate(508.57142857142856,370)"><tspan x="0" y="0.71em">Jan</tspan><tspan x="0" dy="1em">2025</tspan></text><text y="0.71em" transform="translate(611.4285714285714,370)">Apr</text><text y="0.71em" transform="translate(715.4285714285714,370)">Jul</text><text y="0.71em" transform="translate(820.5714285714286,370)">Oct</text></g><g aria-label="line" fill="none" stroke="steelblue" stroke-width="1.5" stroke-linejoin="round" stroke-linecap="round"><path d="M40,370L65.143,370L65.143,370L69.714,370L69.714,370L69.714,370L69.714,370L73.143,370L73.143,370L73.143,370L73.143,370L73.143,370L73.143,370L73.143,370L73.143,370L78.857,370L78.857,370L90.286,370L90.286,370L91.429,370L91.429,370L96,370L96,370L96,370L96,370L97.143,370L97.143,370L97.143,370L97.143,370L98.286,370L98.286,370L99.429,370L99.429,370L99.429,370L99.429,370L102.857,370L102.857,370L104,370L104,370L105.143,370L105.143,370L105.143,370L105.143,370L108.571,370L108.571,370L109.714,370L109.714,370L109.714,370L109.714,370L110.857,370L110.857,370L234.286,370L234.286,370L234.286,370L234.286,370L236.571,370L236.571,370L238.857,370L238.857,370L243.429,370L243.429,370L251.429,370L251.429,370L252.571,370L252.571,370L253.714,370L253.714,370L254.857,370L254.857,370L254.857,370L254.857,370L259.429,370L259.429,370L259.429,370L259.429,370L261.714,370L261.714,370L265.143,370L265.143,370L266.286,370L266.286,370L266.286,370L266.286,370L267.429,370L267.429,370L269.714,370L269.714,370L269.714,370L269.714,370L274.286,370L274.286,370L274.286,370L274.286,370L274.286,370L274.286,370L274.286,370L274.286,370L275.429,370L275.429,370L275.429,370L275.429,370L277.714,370L277.714,370L284.571,370L284.571,370L290.286,370L290.286,370L292.571,370L292.571,253.333L292.571,253.333L292.571,253.333L292.571,253.333L292.571,253.333L292.571,253.333L292.571,253.333L292.571,253.333L292.571,253.333L293.714,253.333L293.714,253.333L294.857,253.333L294.857,253.333L294.857,253.333L294.857,253.333L299.429,253.333L299.429,253.333L301.714,253.333L301.714,253.333L366.857,253.333L366.857,253.333L414.857,253.333L414.857,253.333L465.143,253.333L465.143,253.333L465.143,253.333L465.143,253.333L465.143,253.333L465.143,253.333L465.143,253.333L465.143,253.333L465.143,253.333L465.143,253.333L521.143,253.333L521.143,253.333L590.857,253.333L590.857,136.667L641.143,136.667L641.143,136.667L643.429,136.667L643.429,20L644.571,20L644.571,20L649.143,20L649.143,20L649.143,20L649.143,20L649.143,20L649.143,20L880,20L880,20"></path></g></svg>
