<svg class="plot" fill="currentColor" font-family="system-ui, sans-serif" font-size="10" text-anchor="middle" width="900" height="400" viewBox="0 0 900 400" xmlns="http://www.w3.org/2000/svg" xmlns:xlink="http://www.w3.org/1999/xlink"><style>
.plot {
  color: black;
}

@media (prefers-color-scheme: dark) {
  .plot { color: white; }
}
</style><style>:where(.plot) {
  --plot-background: white;
  display: block;
  height: auto;
  height: intrinsic;
  max-width: 100%;
}
:where(.plot text),
:where(.plot tspan) {
  white-space: pre;
}</style><g aria-label="y-grid" aria-hidden="true" stroke="currentColor" stroke-opacity="0.1"><line x1="40" x2="880" y1="370" y2="370"></line><line x1="40" x2="880" y1="326.25" y2="326.25"></line><line x1="40" x2="880" y1="282.5" y2="282.5"></line><line x1="40" x2="880" y1="238.75" y2="238.75"></line><line x1="40" x2="880" y1="195" y2="195"></line><line x1="40" x2="880" y1="151.25" y2="151.25"></line><line x1="40" x2="880" y1="107.5" y2="107.5"></line><line x1="40" x2="880" y1="63.75" y2="63.75"></line><line x1="40" x2="880" y1="20" y2="20"></line></g><g aria-label="y-axis tick" aria-hidden="true" fill="none" stroke="currentColor"><path transform="translate(40,370)" d="M0,0L-6,0"></path><path transform="translate(40,326.25)" d="M0,0L-6,0"></path><path transform="translate(40,282.5)" d="M0,0L-6,0"></path><path transform="translate(40,238.75)" d="M0,0L-6,0"></path><path transform="translate(40,195)" d="M0,0L-6,0"></path><path transform="translate(40,151.25)" d="M0,0L-6,0"></path><path transform="translate(40,107.5)" d="M0,0L-6,0"></path><path transform="translate(40,63.75)" d="M0,0L-6,0"></path><path transform="translate(40,20)" d="M0,0L-6,0"></path></g><g aria-label="y-axis tick label" text-anchor="end" font-variant="tabular-nums" transform="translate(-9,0)"><text y="0.32em" transform="translate(40,370)">0</text><text y="0.32em" transform="translate(40,326.25)">1</text><text y="0.32em" transform="translate(40,282.5)">2</text><text y="0.32em" transform="translate(40,238.75)">3</text><text y="0.32em" transform="translate(40,195)">4</text><text y="0.32em" transform="translate(40,151.25)">5</text><text y="0.32em" transform="translate(40,107.5)">6</text><text y="0.32em" transform="translate(40,63.75)">7</text><text y="0.32em" transform="translate(40,20)">8</text></g><g aria-label="x-axis tick" aria-hidden="true" fill="none" stroke="currentColor"><path transform="translate(90.21739130434783,370)" d="M0,0L0,6"></path><path transform="translate(194.07608695652175,370)" d="M0,0L0,6"></path><path transform="translate(297.9347826086956,370)" d="M0,0L0,6"></path><path transform="translate(402.9347826086956,370)" d="M0,0L0,6"></path><path transform="translate(507.9347826086956,370)" d="M0,0L0,6"></path><path transform="translate(610.6521739130435,370)" d="M0,0L0,6"></path><path transform="translate(714.5108695652174,370)" d="M0,0L0,6"></path><path transform="translate(819.5108695652174,370)" d="M0,0L0,6"></path></g><g aria-label="x-axis tick label" font-variant="tabular-nums" transform="translate(0,9)"><text transform="translate(90.21739130434783,370)"><tspan x="0" y="0.71em">Jan</tspan><tspan x="0" dy="1em">2024</tspan></text><text y="0.71em" transform="translate(194.07608695652175,370)">Apr</text><text y="0.71em" transform="translate(297.9347826086956,370)">Jul</text><text y="0.71em" transform="translate(402.9347826086956,370)">Oct</text><text transform="translate(507.9347826086956,370)"><tspan x="0" y="0.71em">Jan</tspan><tspan x="0" dy="1em">2025</tspan></text><text y="0.71em" transform="translate(610.6521739130435,370)">Apr</text><text y="0.71em" transform="translate(714.5108695652174,370)">Jul</text><text y="0.71em" transform="translate(819.5108695652174,370)">Oct</text></g><g aria-label="line" fill="none" stroke="steelblue" stroke-width="1.5" stroke-linejoin="round" stroke-linecap="round"><path d="M40,370L65.109,370L65.109,370L69.674,370L69.674,370L69.674,370L69.674,370L73.098,370L73.098,370L73.098,370L73.098,370L73.098,370L73.098,370L73.098,370L73.098,370L78.804,370L78.804,370L90.217,370L90.217,370L91.359,370L91.359,370L95.924,370L95.924,370L95.924,370L95.924,370L97.065,370L97.065,370L97.065,370L97.065,370L98.207,370L98.207,370L99.348,370L99.348,370L99.348,370L99.348,370L102.772,370L102.772,370L103.913,370L103.913,370L105.054,370L105.054,326.25L105.054,326.25L105.054,370L108.478,370L108.478,326.25L109.62,326.25L109.62,326.25L109.62,326.25L109.62,326.25L110.761,326.25L110.761,326.25L234.022,326.25L234.022,326.25L234.022,326.25L234.022,326.25L236.304,326.25L236.304,326.25L238.587,326.25L238.587,326.25L243.152,326.25L243.152,282.5L251.141,282.5L251.141,282.5L252.283,282.5L252.283,282.5L253.424,282.5L253.424,282.5L254.565,282.5L254.565,282.5L254.565,282.5L254.565,282.5L259.13,282.5L259.13,282.5L259.13,282.5L259.13,195L261.413,195L261.413,195L264.837,195L264.837,195L265.978,195L265.978,195L265.978,195L265.978,195L267.12,195L267.12,195L269.402,195L269.402,151.25L269.402,151.25L269.402,151.25L273.967,151.25L273.967,151.25L273.967,151.25L273.967,151.25L273.967,151.25L273.967,151.25L273.967,151.25L273.967,151.25L275.109,151.25L275.109,151.25L275.109,151.25L275.109,151.25L277.391,151.25L277.391,151.25L284.239,151.25L284.239,151.25L289.946,151.25L289.946,151.25L292.228,151.25L292.228,151.25L292.228,151.25L292.228,195L292.228,195L292.228,195L292.228,195L292.228,151.25L292.228,151.25L292.228,151.25L293.37,151.25L293.37,151.25L294.511,151.25L294.511,151.25L294.511,151.25L294.511,151.25L299.076,151.25L299.076,151.25L301.359,151.25L301.359,151.25L366.413,151.25L366.413,151.25L414.348,151.25L414.348,151.25L464.565,151.25L464.565,151.25L464.565,151.25L464.565,151.25L464.565,151.25L464.565,151.25L464.565,151.25L464.565,151.25L464.565,151.25L464.565,151.25L520.489,151.25L520.489,151.25L590.109,151.25L590.109,107.5L640.326,107.5L640.326,107.5L642.609,107.5L642.609,20L643.75,20L643.75,20L648.315,20L648.315,20L648.315,20L648.315,20L648.315,20L648.315,20L720.217,20L720.217,20L720.217,20L720.217,20L720.217,20L720.217,20L720.217,20L720.217,20L720.217,20L720.217,20L720.217,20L720.217,20L720.217,20L720.217,20L723.641,20L723.641,20L806.957,20L806.957,20L806.957,20L806.957,63.75L806.957,63.75L806.957,20L806.957,20L806.957,63.75L806.957,63.75L806.957,63.75L808.098,63.75L808.098,63.75L880,63.75L880,63.75L880,63.75L880,63.75L880,63.75L880,63.75L880,63.75L880,63.75L880,63.75L880,63.75L880,63.75L880,63.75L880,63.75L880,63.75"></path></g></svg>
