<svg class="plot-d6a7b5" fill="currentColor" font-family="system-ui, sans-serif" font-size="10" text-anchor="middle" width="900" height="400" viewBox="0 0 900 400" xmlns="http://www.w3.org/2000/svg" xmlns:xlink="http://www.w3.org/1999/xlink"><style>:where(.plot-d6a7b5) {
  --plot-background: white;
  display: block;
  height: auto;
  height: intrinsic;
  max-width: 100%;
}
:where(.plot-d6a7b5 text),
:where(.plot-d6a7b5 tspan) {
  white-space: pre;
}</style><g aria-label="y-grid" aria-hidden="true" stroke="currentColor" stroke-opacity="0.1"><line x1="40" x2="880" y1="370" y2="370"></line><line x1="40" x2="880" y1="346.66666666666663" y2="346.66666666666663"></line><line x1="40" x2="880" y1="323.33333333333337" y2="323.33333333333337"></line><line x1="40" x2="880" y1="300" y2="300"></line><line x1="40" x2="880" y1="276.6666666666667" y2="276.6666666666667"></line><line x1="40" x2="880" y1="253.33333333333334" y2="253.33333333333334"></line><line x1="40" x2="880" y1="230.00000000000003" y2="230.00000000000003"></line><line x1="40" x2="880" y1="206.6666666666667" y2="206.6666666666667"></line><line x1="40" x2="880" y1="183.33333333333331" y2="183.33333333333331"></line><line x1="40" x2="880" y1="160" y2="160"></line><line x1="40" x2="880" y1="136.66666666666669" y2="136.66666666666669"></line><line x1="40" x2="880" y1="113.33333333333331" y2="113.33333333333331"></line><line x1="40" x2="880" y1="90.00000000000003" y2="90.00000000000003"></line><line x1="40" x2="880" y1="66.66666666666666" y2="66.66666666666666"></line><line x1="40" x2="880" y1="43.33333333333337" y2="43.33333333333337"></line><line x1="40" x2="880" y1="20" y2="20"></line></g><g aria-label="y-axis tick" aria-hidden="true" fill="none" stroke="currentColor"><path transform="translate(40,370)" d="M0,0L-6,0"></path><path transform="translate(40,346.66666666666663)" d="M0,0L-6,0"></path><path transform="translate(40,323.33333333333337)" d="M0,0L-6,0"></path><path transform="translate(40,300)" d="M0,0L-6,0"></path><path transform="translate(40,276.6666666666667)" d="M0,0L-6,0"></path><path transform="translate(40,253.33333333333334)" d="M0,0L-6,0"></path><path transform="translate(40,230.00000000000003)" d="M0,0L-6,0"></path><path transform="translate(40,206.6666666666667)" d="M0,0L-6,0"></path><path transform="translate(40,183.33333333333331)" d="M0,0L-6,0"></path><path transform="translate(40,160)" d="M0,0L-6,0"></path><path transform="translate(40,136.66666666666669)" d="M0,0L-6,0"></path><path transform="translate(40,113.33333333333331)" d="M0,0L-6,0"></path><path transform="translate(40,90.00000000000003)" d="M0,0L-6,0"></path><path transform="translate(40,66.66666666666666)" d="M0,0L-6,0"></path><path transform="translate(40,43.33333333333337)" d="M0,0L-6,0"></path><path transform="translate(40,20)" d="M0,0L-6,0"></path></g><g aria-label="y-axis tick label" text-anchor="end" font-variant="tabular-nums" transform="translate(-9,0)"><text y="0.32em" transform="translate(40,370)">0</text><text y="0.32em" transform="translate(40,346.66666666666663)"></text><text y="0.32em" transform="translate(40,323.33333333333337)"></text><text y="0.32em" transform="translate(40,300)"></text><text y="0.32em" transform="translate(40,276.6666666666667)"></text><text y="0.32em" transform="translate(40,253.33333333333334)">1</text><text y="0.32em" transform="translate(40,230.00000000000003)"></text><text y="0.32em" transform="translate(40,206.6666666666667)"></text><text y="0.32em" transform="translate(40,183.33333333333331)"></text><text y="0.32em" transform="translate(40,160)"></text><text y="0.32em" transform="translate(40,136.66666666666669)">2</text><text y="0.32em" transform="translate(40,113.33333333333331)"></text><text y="0.32em" transform="translate(40,90.00000000000003)"></text><text y="0.32em" transform="translate(40,66.66666666666666)"></text><text y="0.32em" transform="translate(40,43.33333333333337)"></text><text y="0.32em" transform="translate(40,20)">3</text></g><g aria-label="x-axis tick" aria-hidden="true" fill="none" stroke="currentColor"><path transform="translate(90.21739130434783,370)" d="M0,0L0,6"></path><path transform="translate(194.07608695652175,370)" d="M0,0L0,6"></path><path transform="translate(297.9347826086956,370)" d="M0,0L0,6"></path><path transform="translate(402.9347826086956,370)" d="M0,0L0,6"></path><path transform="translate(507.9347826086956,370)" d="M0,0L0,6"></path><path transform="translate(610.6521739130435,370)" d="M0,0L0,6"></path><path transform="translate(714.5108695652174,370)" d="M0,0L0,6"></path><path transform="translate(819.5108695652174,370)" d="M0,0L0,6"></path></g><g aria-label="x-axis tick label" font-variant="tabular-nums" transform="translate(0,9)"><text transform="translate(90.21739130434783,370)"><tspan x="0" y="0.71em">Jan</tspan><tspan x="0" dy="1em">2024</tspan></text><text y="0.71em" transform="translate(194.07608695652175,370)">Apr</text><text y="0.71em" transform="translate(297.9347826086956,370)">Jul</text><text y="0.71em" transform="translate(402.9347826086956,370)">Oct</text><text transform="translate(507.9347826086956,370)"><tspan x="0" y="0.71em">Jan</tspan><tspan x="0" dy="1em">2025</tspan></text><text y="0.71em" transform="translate(610.6521739130435,370)">Apr</text><text y="0.71em" transform="translate(714.5108695652174,370)">Jul</text><text y="0.71em" transform="translate(819.5108695652174,370)">Oct</text></g><g aria-label="line" fill="none" stroke="steelblue" stroke-width="1.5" stroke-linejoin="round" stroke-linecap="round"><path d="M40,370L65.109,370L65.109,370L69.674,370L69.674,370L69.674,370L69.674,370L73.098,370L73.098,370L73.098,370L73.098,370L73.098,370L73.098,370L73.098,370L73.098,370L78.804,370L78.804,370L90.217,370L90.217,370L91.359,370L91.359,370L95.924,370L95.924,370L95.924,370L95.924,370L97.065,370L97.065,370L97.065,370L97.065,370L98.207,370L98.207,370L99.348,370L99.348,370L99.348,370L99.348,370L102.772,370L102.772,370L103.913,370L103.913,370L105.054,370L105.054,370L105.054,370L105.054,370L108.478,370L108.478,370L109.62,370L109.62,370L109.62,370L109.62,370L110.761,370L110.761,370L234.022,370L234.022,370L234.022,370L234.022,370L236.304,370L236.304,370L238.587,370L238.587,370L243.152,370L243.152,370L251.141,370L251.141,370L252.283,370L252.283,370L253.424,370L253.424,370L254.565,370L254.565,370L254.565,370L254.565,370L259.13,370L259.13,370L259.13,370L259.13,370L261.413,370L261.413,370L264.837,370L264.837,370L265.978,370L265.978,370L265.978,370L265.978,370L267.12,370L267.12,370L269.402,370L269.402,370L269.402,370L269.402,370L273.967,370L273.967,370L273.967,370L273.967,370L273.967,370L273.967,370L273.967,370L273.967,370L275.109,370L275.109,370L275.109,370L275.109,370L277.391,370L277.391,370L284.239,370L284.239,370L289.946,370L289.946,370L292.228,370L292.228,253.333L292.228,253.333L292.228,253.333L292.228,253.333L292.228,253.333L292.228,253.333L292.228,253.333L292.228,253.333L292.228,253.333L293.37,253.333L293.37,253.333L294.511,253.333L294.511,253.333L294.511,253.333L294.511,253.333L299.076,253.333L299.076,253.333L301.359,253.333L301.359,253.333L366.413,253.333L366.413,253.333L414.348,253.333L414.348,253.333L464.565,253.333L464.565,253.333L464.565,253.333L464.565,253.333L464.565,253.333L464.565,253.333L464.565,253.333L464.565,253.333L464.565,253.333L464.565,253.333L520.489,253.333L520.489,253.333L590.109,253.333L590.109,136.667L640.326,136.667L640.326,136.667L642.609,136.667L642.609,20L643.75,20L643.75,20L648.315,20L648.315,20L648.315,20L648.315,20L648.315,20L648.315,20L720.217,20L720.217,20L720.217,20L720.217,20L720.217,20L720.217,20L720.217,20L720.217,20L720.217,20L720.217,20L720.217,20L720.217,20L720.217,20L720.217,20L723.641,20L723.641,20L806.957,20L806.957,20L806.957,20L806.957,20L806.957,20L806.957,20L806.957,20L806.957,20L806.957,20L806.957,20L808.098,20L808.098,20L880,20L880,20L880,20L880,20L880,20L880,20L880,20L880,20"></path></g></svg>
