<svg class="plot" fill="currentColor" font-family="system-ui, sans-serif" font-size="10" text-anchor="middle" width="900" height="400" viewBox="0 0 900 400" xmlns="http://www.w3.org/2000/svg" xmlns:xlink="http://www.w3.org/1999/xlink"><style>
.plot {
  color: black;
}

@media (prefers-color-scheme: dark) {
  .plot { color: white; }
}
</style><style>:where(.plot) {
  --plot-background: white;
  display: block;
  height: auto;
  height: intrinsic;
  max-width: 100%;
}
:where(.plot text),
:where(.plot tspan) {
  white-space: pre;
}</style><g aria-label="y-grid" aria-hidden="true" stroke="currentColor" stroke-opacity="0.1"><line x1="40" x2="880" y1="370" y2="370"></line><line x1="40" x2="880" y1="335" y2="335"></line><line x1="40" x2="880" y1="300" y2="300"></line><line x1="40" x2="880" y1="265" y2="265"></line><line x1="40" x2="880" y1="230" y2="230"></line><line x1="40" x2="880" y1="195" y2="195"></line><line x1="40" x2="880" y1="160" y2="160"></line><line x1="40" x2="880" y1="125.00000000000001" y2="125.00000000000001"></line><line x1="40" x2="880" y1="89.99999999999999" y2="89.99999999999999"></line><line x1="40" x2="880" y1="54.99999999999999" y2="54.99999999999999"></line><line x1="40" x2="880" y1="20" y2="20"></line></g><g aria-label="y-axis tick" aria-hidden="true" fill="none" stroke="currentColor"><path transform="translate(40,370)" d="M0,0L-6,0"></path><path transform="translate(40,335)" d="M0,0L-6,0"></path><path transform="translate(40,300)" d="M0,0L-6,0"></path><path transform="translate(40,265)" d="M0,0L-6,0"></path><path transform="translate(40,230)" d="M0,0L-6,0"></path><path transform="translate(40,195)" d="M0,0L-6,0"></path><path transform="translate(40,160)" d="M0,0L-6,0"></path><path transform="translate(40,125.00000000000001)" d="M0,0L-6,0"></path><path transform="translate(40,89.99999999999999)" d="M0,0L-6,0"></path><path transform="translate(40,54.99999999999999)" d="M0,0L-6,0"></path><path transform="translate(40,20)" d="M0,0L-6,0"></path></g><g aria-label="y-axis tick label" text-anchor="end" font-variant="tabular-nums" transform="translate(-9,0)"><text y="0.32em" transform="translate(40,370)">0</text><text y="0.32em" transform="translate(40,335)">1</text><text y="0.32em" transform="translate(40,300)">2</text><text y="0.32em" transform="translate(40,265)">3</text><text y="0.32em" transform="translate(40,230)">4</text><text y="0.32em" transform="translate(40,195)">5</text><text y="0.32em" transform="translate(40,160)">6</text><text y="0.32em" transform="translate(40,125.00000000000001)">7</text><text y="0.32em" transform="translate(40,89.99999999999999)">8</text><text y="0.32em" transform="translate(40,54.99999999999999)">9</text><text y="0.32em" transform="translate(40,20)">10</text></g><g aria-label="x-axis tick" aria-hidden="true" fill="none" stroke="currentColor"><path transform="translate(87.69032258064516,370)" d="M0,0L0,6"></path><path transform="translate(186.32258064516128,370)" d="M0,0L0,6"></path><path transform="translate(284.9548387096774,370)" d="M0,0L0,6"></path><path transform="translate(384.6709677419355,370)" d="M0,0L0,6"></path><path transform="translate(484.38709677419354,370)" d="M0,0L0,6"></path><path transform="translate(581.9354838709678,370)" d="M0,0L0,6"></path><path transform="translate(680.5677419354839,370)" d="M0,0L0,6"></path><path transform="translate(780.283870967742,370)" d="M0,0L0,6"></path><path transform="translate(880,370)" d="M0,0L0,6"></path></g><g aria-label="x-axis tick label" font-variant="tabular-nums" transform="translate(0,9)"><text transform="translate(87.69032258064516,370)"><tspan x="0" y="0.71em">Jan</tspan><tspan x="0" dy="1em">2024</tspan></text><text y="0.71em" transform="translate(186.32258064516128,370)">Apr</text><text y="0.71em" transform="translate(284.9548387096774,370)">Jul</text><text y="0.71em" transform="translate(384.6709677419355,370)">Oct</text><text transform="translate(484.38709677419354,370)"><tspan x="0" y="0.71em">Jan</tspan><tspan x="0" dy="1em">2025</tspan></text><text y="0.71em" transform="translate(581.9354838709678,370)">Apr</text><text y="0.71em" transform="translate(680.5677419354839,370)">Jul</text><text y="0.71em" transform="translate(780.283870967742,370)">Oct</text><text transform="translate(880,370)"><tspan x="0" y="0.71em">Jan</tspan><tspan x="0" dy="1em">2026</tspan></text></g><g aria-label="line" fill="none" stroke="steelblue" stroke-width="1.5" stroke-linejoin="round" stroke-linecap="round"><path d="M40,370L63.845,370L63.845,370L68.181,370L68.181,370L68.181,370L68.181,370L71.432,370L71.432,370L71.432,370L71.432,370L71.432,370L71.432,370L71.432,370L71.432,370L76.852,370L76.852,370L87.69,370L87.69,370L88.774,370L88.774,370L93.11,370L93.11,370L93.11,370L93.11,370L94.194,370L94.194,370L94.194,370L94.194,370L95.277,370L95.277,370L96.361,370L96.361,370L96.361,370L96.361,370L99.613,370L99.613,370L100.697,370L100.697,370L101.781,370L101.781,335L101.781,335L101.781,370L105.032,370L105.032,335L106.116,335L106.116,335L106.116,335L106.116,335L107.2,335L107.2,335L224.258,335L224.258,335L224.258,335L224.258,335L226.426,335L226.426,335L228.594,335L228.594,335L232.929,335L232.929,300L240.516,300L240.516,300L241.6,300L241.6,300L242.684,300L242.684,300L243.768,300L243.768,300L243.768,300L243.768,300L248.103,300L248.103,300L248.103,300L248.103,230L250.271,230L250.271,230L253.523,230L253.523,230L254.606,230L254.606,230L254.606,230L254.606,230L255.69,230L255.69,230L257.858,230L257.858,195L257.858,195L257.858,195L262.194,195L262.194,195L262.194,195L262.194,195L262.194,195L262.194,195L262.194,195L262.194,195L263.277,195L263.277,195L263.277,195L263.277,195L265.445,195L265.445,195L271.948,195L271.948,195L277.368,195L277.368,195L279.535,195L279.535,195L279.535,195L279.535,230L279.535,230L279.535,230L279.535,230L279.535,195L279.535,195L279.535,195L280.619,195L280.619,195L281.703,195L281.703,195L281.703,195L281.703,195L286.039,195L286.039,195L288.206,195L288.206,195L349.987,195L349.987,195L395.51,195L395.51,195L443.2,195L443.2,195L443.2,195L443.2,195L443.2,195L443.2,195L443.2,195L443.2,195L443.2,195L443.2,195L496.31,195L496.31,195L562.426,195L562.426,160L610.116,160L610.116,160L612.284,160L612.284,90L613.368,90L613.368,90L617.703,90L617.703,90L617.703,90L617.703,90L617.703,90L617.703,90L685.987,90L685.987,90L685.987,90L685.987,90L685.987,90L685.987,90L685.987,90L685.987,90L685.987,90L685.987,90L685.987,90L685.987,90L685.987,90L685.987,90L689.239,90L689.239,90L768.361,90L768.361,125L768.361,125L768.361,125L768.361,125L768.361,125L768.361,125L768.361,90L768.361,90L768.361,90L769.445,90L769.445,125L837.729,125L837.729,125L837.729,125L837.729,125L837.729,125L837.729,125L837.729,125L837.729,125L837.729,125L837.729,125L837.729,125L837.729,125L866.994,125L866.994,125L876.748,125L876.748,125L876.748,125L876.748,125L876.748,125L876.748,125L876.748,125L876.748,125L878.916,125L878.916,55L878.916,55L878.916,55L878.916,55L878.916,20L878.916,20L878.916,20L878.916,20L878.916,20L880,20L880,55L880,55L880,55"></path></g></svg>
