<svg class="plot" fill="currentColor" font-family="system-ui, sans-serif" font-size="10" text-anchor="middle" width="900" height="400" viewBox="0 0 900 400" xmlns="http://www.w3.org/2000/svg" xmlns:xlink="http://www.w3.org/1999/xlink"><style>
.plot {
  color: black;
}

@media (prefers-color-scheme: dark) {
  .plot { color: white; }
}
</style><style>:where(.plot) {
  --plot-background: white;
  display: block;
  height: auto;
  height: intrinsic;
  max-width: 100%;
}
:where(.plot text),
:where(.plot tspan) {
  white-space: pre;
}</style><g aria-label="y-grid" aria-hidden="true" stroke="currentColor" stroke-opacity="0.1"><line x1="40" x2="880" y1="332.9843918191604" y2="332.9843918191604"></line><line x1="40" x2="880" y1="285.89074273412274" y2="285.89074273412274"></line><line x1="40" x2="880" y1="238.79709364908504" y2="238.79709364908504"></line><line x1="40" x2="880" y1="191.70344456404735" y2="191.70344456404735"></line><line x1="40" x2="880" y1="144.6097954790097" y2="144.6097954790097"></line><line x1="40" x2="880" y1="97.516146393972" y2="97.516146393972"></line><line x1="40" x2="880" y1="50.422497308934325" y2="50.422497308934325"></line></g><g aria-label="y-axis tick" aria-hidden="true" fill="none" stroke="currentColor"><path transform="translate(40,332.9843918191604)" d="M0,0L-6,0"></path><path transform="translate(40,285.89074273412274)" d="M0,0L-6,0"></path><path transform="translate(40,238.79709364908504)" d="M0,0L-6,0"></path><path transform="translate(40,191.70344456404735)" d="M0,0L-6,0"></path><path transform="translate(40,144.6097954790097)" d="M0,0L-6,0"></path><path transform="translate(40,97.516146393972)" d="M0,0L-6,0"></path><path transform="translate(40,50.422497308934325)" d="M0,0L-6,0"></path></g><g aria-label="y-axis tick label" text-anchor="end" font-variant="tabular-nums" transform="translate(-9,0)"><text y="0.32em" transform="translate(40,332.9843918191604)">500</text><text y="0.32em" transform="translate(40,285.89074273412274)">1000</text><text y="0.32em" transform="translate(40,238.79709364908504)">1500</text><text y="0.32em" transform="translate(40,191.70344456404735)">2000</text><text y="0.32em" transform="translate(40,144.6097954790097)">2500</text><text y="0.32em" transform="translate(40,97.516146393972)">3000</text><text y="0.32em" transform="translate(40,50.422497308934325)">3500</text></g><g aria-label="x-axis tick" aria-hidden="true" fill="none" stroke="currentColor"><path transform="translate(87.8137128072445,370)" d="M0,0L0,6"></path><path transform="translate(186.7011642949547,370)" d="M0,0L0,6"></path><path transform="translate(285.58861578266493,370)" d="M0,0L0,6"></path><path transform="translate(385.5627425614489,370)" d="M0,0L0,6"></path><path transform="translate(485.5368693402328,370)" d="M0,0L0,6"></path><path transform="translate(583.3376455368692,370)" d="M0,0L0,6"></path><path transform="translate(682.2250970245796,370)" d="M0,0L0,6"></path><path transform="translate(782.1992238033636,370)" d="M0,0L0,6"></path></g><g aria-label="x-axis tick label" font-variant="tabular-nums" transform="translate(0,9)"><text transform="translate(87.8137128072445,370)"><tspan x="0" y="0.71em">Jan</tspan><tspan x="0" dy="1em">2024</tspan></text><text y="0.71em" transform="translate(186.7011642949547,370)">Apr</text><text y="0.71em" transform="translate(285.58861578266493,370)">Jul</text><text y="0.71em" transform="translate(385.5627425614489,370)">Oct</text><text transform="translate(485.5368693402328,370)"><tspan x="0" y="0.71em">Jan</tspan><tspan x="0" dy="1em">2025</tspan></text><text y="0.71em" transform="translate(583.3376455368692,370)">Apr</text><text y="0.71em" transform="translate(682.2250970245796,370)">Jul</text><text y="0.71em" transform="translate(782.1992238033636,370)">Oct</text></g><g aria-label="line" fill="none" stroke="steelblue" stroke-width="1.5" stroke-linejoin="round" stroke-linecap="round"><path d="M40,307.931L63.907,307.931L63.907,306.989L68.254,306.989L68.254,307.742L68.254,307.742L68.254,309.155L71.514,309.155L71.514,249.534L71.514,249.534L71.514,299.36L71.514,299.36L71.514,238.42L71.514,238.42L71.514,247.651L76.947,247.651L76.947,237.29L87.814,237.29L87.814,370L88.9,370L88.9,368.493L93.247,368.493L93.247,361.429L93.247,361.429L93.247,363.878L94.334,363.878L94.334,360.581L94.334,360.581L94.334,357.85L95.42,357.85L95.42,352.199L96.507,352.199L96.507,349.185L96.507,349.185L96.507,348.525L99.767,348.525L99.767,348.243L100.854,348.243L100.854,348.054L101.94,348.054L101.94,342.968L101.94,342.968L101.94,345.7L105.201,345.7L105.201,340.99L106.287,340.99L106.287,325.261L106.287,325.261L106.287,322.624L107.374,322.624L107.374,322.247L224.735,322.247L224.735,322.153L224.735,322.153L224.735,320.928L226.908,320.928L226.908,319.327L229.082,319.327L229.082,313.393L233.428,313.393L233.428,310.191L241.035,310.191L241.035,308.402L242.122,308.402L242.122,301.243L243.208,301.243L243.208,293.802L244.295,293.802L244.295,293.614L244.295,293.614L244.295,293.52L248.642,293.52L248.642,287.398L248.642,287.398L248.642,286.927L250.815,286.927L250.815,286.267L254.075,286.267L254.075,260.366L255.162,260.366L255.162,257.729L255.162,257.729L255.162,248.31L256.248,248.31L256.248,240.681L258.422,240.681L258.422,227.118L258.422,227.118L258.422,231.733L262.768,231.733L262.768,220.148L262.768,220.148L262.768,226.835L262.768,226.835L262.768,215.533L262.768,215.533L262.768,217.322L263.855,217.322L263.855,217.134L263.855,217.134L263.855,216.004L266.028,216.004L266.028,214.968L272.549,214.968L272.549,215.156L277.982,215.156L277.982,180.589L280.155,180.589L280.155,150.167L280.155,150.167L280.155,159.774L280.155,159.774L280.155,140.089L280.155,140.089L280.155,152.333L280.155,152.333L280.155,174.656L281.242,174.656L281.242,141.125L282.329,141.125L282.329,137.64L282.329,137.64L282.329,138.017L286.675,138.017L286.675,138.488L288.849,138.488L288.849,116.071L350.789,116.071L350.789,114.847L396.429,114.847L396.429,111.738L444.243,111.738L444.243,100.53L444.243,100.53L444.243,106.37L444.243,106.37L444.243,100.53L444.243,100.53L444.243,100.53L444.243,100.53L444.243,100.53L497.49,100.53L497.49,99.588L563.777,99.588L563.777,90.829L611.591,90.829L611.591,75.571L613.765,75.571L613.765,70.767L614.851,70.767L614.851,76.701L619.198,76.701L619.198,30.455L619.198,30.455L619.198,30.455L619.198,30.455L619.198,40.156L687.658,40.156L687.658,29.23L687.658,29.23L687.658,29.607L687.658,29.607L687.658,26.499L687.658,26.499L687.658,29.795L687.658,29.795L687.658,29.419L687.658,29.419L687.658,29.795L687.658,29.795L687.658,29.795L690.918,29.795L690.918,24.05L770.246,24.05L770.246,22.637L770.246,22.637L770.246,22.637L770.246,22.637L770.246,23.485L770.246,23.485L770.246,23.014L770.246,23.014L770.246,23.391L771.332,23.391L771.332,22.637L839.793,22.637L839.793,22.26L839.793,22.26L839.793,22.26L839.793,22.26L839.793,22.26L839.793,22.26L839.793,22.637L839.793,22.637L839.793,22.26L839.793,22.26L839.793,22.26L869.133,22.26L869.133,22.26L878.913,22.26L878.913,20L878.913,20L878.913,22.731L878.913,22.731L878.913,22.543L878.913,22.543L878.913,21.036L880,21.036L880,21.036"></path></g></svg>
