<svg class="plot" fill="currentColor" font-family="system-ui, sans-serif" font-size="10" text-anchor="middle" width="900" height="400" viewBox="0 0 900 400" xmlns="http://www.w3.org/2000/svg" xmlns:xlink="http://www.w3.org/1999/xlink"><style>
.plot {
  color: black;
}

@media (prefers-color-scheme: dark) {
  .plot { color: white; }
}
</style><style>:where(.plot) {
  --plot-background: white;
  display: block;
  height: auto;
  height: intrinsic;
  max-width: 100%;
}
:where(.plot text),
:where(.plot tspan) {
  white-space: pre;
}</style><g aria-label="y-grid" aria-hidden="true" stroke="currentColor" stroke-opacity="0.1"><line x1="40" x2="880" y1="335.50902708124374" y2="335.50902708124374"></line><line x1="40" x2="880" y1="291.6273821464393" y2="291.6273821464393"></line><line x1="40" x2="880" y1="247.7457372116349" y2="247.7457372116349"></line><line x1="40" x2="880" y1="203.86409227683052" y2="203.86409227683052"></line><line x1="40" x2="880" y1="159.9824473420261" y2="159.9824473420261"></line><line x1="40" x2="880" y1="116.10080240722165" y2="116.10080240722165"></line><line x1="40" x2="880" y1="72.21915747241725" y2="72.21915747241725"></line><line x1="40" x2="880" y1="28.337512537612845" y2="28.337512537612845"></line></g><g aria-label="y-axis tick" aria-hidden="true" fill="none" stroke="currentColor"><path transform="translate(40,335.50902708124374)" d="M0,0L-6,0"></path><path transform="translate(40,291.6273821464393)" d="M0,0L-6,0"></path><path transform="translate(40,247.7457372116349)" d="M0,0L-6,0"></path><path transform="translate(40,203.86409227683052)" d="M0,0L-6,0"></path><path transform="translate(40,159.9824473420261)" d="M0,0L-6,0"></path><path transform="translate(40,116.10080240722165)" d="M0,0L-6,0"></path><path transform="translate(40,72.21915747241725)" d="M0,0L-6,0"></path><path transform="translate(40,28.337512537612845)" d="M0,0L-6,0"></path></g><g aria-label="y-axis tick label" text-anchor="end" font-variant="tabular-nums" transform="translate(-9,0)"><text y="0.32em" transform="translate(40,335.50902708124374)">500</text><text y="0.32em" transform="translate(40,291.6273821464393)">1000</text><text y="0.32em" transform="translate(40,247.7457372116349)">1500</text><text y="0.32em" transform="translate(40,203.86409227683052)">2000</text><text y="0.32em" transform="translate(40,159.9824473420261)">2500</text><text y="0.32em" transform="translate(40,116.10080240722165)">3000</text><text y="0.32em" transform="translate(40,72.21915747241725)">3500</text><text y="0.32em" transform="translate(40,28.337512537612845)">4000</text></g><g aria-label="x-axis tick" aria-hidden="true" fill="none" stroke="currentColor"><path transform="translate(87.69032258064516,370)" d="M0,0L0,6"></path><path transform="translate(186.32258064516128,370)" d="M0,0L0,6"></path><path transform="translate(284.9548387096774,370)" d="M0,0L0,6"></path><path transform="translate(384.6709677419355,370)" d="M0,0L0,6"></path><path transform="translate(484.38709677419354,370)" d="M0,0L0,6"></path><path transform="translate(581.9354838709678,370)" d="M0,0L0,6"></path><path transform="translate(680.5677419354839,370)" d="M0,0L0,6"></path><path transform="translate(780.283870967742,370)" d="M0,0L0,6"></path><path transform="translate(880,370)" d="M0,0L0,6"></path></g><g aria-label="x-axis tick label" font-variant="tabular-nums" transform="translate(0,9)"><text transform="translate(87.69032258064516,370)"><tspan x="0" y="0.71em">Jan</tspan><tspan x="0" dy="1em">2024</tspan></text><text y="0.71em" transform="translate(186.32258064516128,370)">Apr</text><text y="0.71em" transform="translate(284.9548387096774,370)">Jul</text><text y="0.71em" transform="translate(384.6709677419355,370)">Oct</text><text transform="translate(484.38709677419354,370)"><tspan x="0" y="0.71em">Jan</tspan><tspan x="0" dy="1em">2025</tspan></text><text y="0.71em" transform="translate(581.9354838709678,370)">Apr</text><text y="0.71em" transform="translate(680.5677419354839,370)">Jul</text><text y="0.71em" transform="translate(780.283870967742,370)">Oct</text><text transform="translate(880,370)"><tspan x="0" y="0.71em">Jan</tspan><tspan x="0" dy="1em">2026</tspan></text></g><g aria-label="line" fill="none" stroke="steelblue" stroke-width="1.5" stroke-linejoin="round" stroke-linecap="round"><path d="M40,312.164L63.845,312.164L63.845,311.286L68.181,311.286L68.181,311.988L68.181,311.988L68.181,313.305L71.432,313.305L71.432,247.395L71.432,247.395L71.432,255.995L71.432,255.995L71.432,257.751L71.432,257.751L71.432,304.178L76.852,304.178L76.852,246.342L87.69,246.342L87.69,370L88.774,370L88.774,368.596L93.11,368.596L93.11,362.014L93.11,362.014L93.11,364.295L94.194,364.295L94.194,358.679L94.194,358.679L94.194,361.224L95.277,361.224L95.277,353.413L96.361,353.413L96.361,349.99L96.361,349.99L96.361,350.604L99.613,350.604L99.613,349.727L100.697,349.727L100.697,349.551L101.781,349.551L101.781,344.812L101.781,344.812L101.781,347.357L105.032,347.357L105.032,342.969L106.116,342.969L106.116,325.855L106.116,325.855L106.116,328.312L107.2,328.312L107.2,325.504L224.258,325.504L224.258,324.275L224.258,324.275L224.258,325.416L226.426,325.416L226.426,322.783L228.594,322.783L228.594,317.254L232.929,317.254L232.929,314.27L240.516,314.27L240.516,312.603L241.6,312.603L241.6,305.933L242.684,305.933L242.684,298.999L243.768,298.999L243.768,298.736L243.768,298.736L243.768,298.824L248.103,298.824L248.103,293.032L248.103,293.032L248.103,292.593L250.271,292.593L250.271,291.978L253.523,291.978L253.523,267.844L254.606,267.844L254.606,256.61L254.606,256.61L254.606,265.386L255.69,265.386L255.69,249.501L257.858,249.501L257.858,236.863L257.858,236.863L257.858,241.163L262.194,241.163L262.194,226.068L262.194,226.068L262.194,227.736L262.194,227.736L262.194,230.369L262.194,230.369L262.194,236.6L263.277,236.6L263.277,226.507L263.277,226.507L263.277,227.56L265.445,227.56L265.445,225.542L271.948,225.542L271.948,225.717L277.368,225.717L277.368,193.508L279.535,193.508L279.535,155.77L279.535,155.77L279.535,165.16L279.535,165.16L279.535,167.179L279.535,167.179L279.535,174.112L279.535,174.112L279.535,187.979L280.619,187.979L280.619,156.735L281.703,156.735L281.703,153.488L281.703,153.488L281.703,153.839L286.039,153.839L286.039,154.278L288.206,154.278L288.206,133.39L349.987,133.39L349.987,132.249L395.51,132.249L395.51,129.353L443.2,129.353L443.2,118.909L443.2,118.909L443.2,118.909L443.2,118.909L443.2,118.909L443.2,118.909L443.2,118.909L443.2,118.909L443.2,124.351L496.31,124.351L496.31,118.032L562.426,118.032L562.426,109.87L610.116,109.87L610.116,95.652L612.284,95.652L612.284,91.176L613.368,91.176L613.368,96.705L617.703,96.705L617.703,53.613L617.703,53.613L617.703,53.613L617.703,53.613L617.703,62.653L685.987,62.653L685.987,49.927L685.987,49.927L685.987,52.823L685.987,52.823L685.987,52.999L685.987,52.999L685.987,52.999L685.987,52.999L685.987,52.999L685.987,52.999L685.987,52.648L685.987,52.648L685.987,52.472L689.239,52.472L689.239,47.645L768.361,47.645L768.361,46.329L768.361,46.329L768.361,46.329L768.361,46.329L768.361,46.68L768.361,46.68L768.361,47.119L768.361,47.119L768.361,47.031L769.445,47.031L769.445,46.329L837.729,46.329L837.729,45.978L837.729,45.978L837.729,45.978L837.729,45.978L837.729,45.978L837.729,45.978L837.729,45.978L837.729,45.978L837.729,45.978L837.729,45.978L837.729,46.329L866.994,46.329L866.994,45.978L876.748,45.978L876.748,44.837L876.748,44.837L876.748,46.417L876.748,46.417L876.748,46.241L876.748,46.241L876.748,43.872L878.916,43.872L878.916,20L878.916,20L878.916,20L878.916,20L878.916,25.792L878.916,25.792L878.916,28.338L878.916,28.338L878.916,28.338L880,28.338L880,20L880,20L880,20"></path></g></svg>
