<svg class="plot" fill="currentColor" font-family="system-ui, sans-serif" font-size="10" text-anchor="middle" width="900" height="400" viewBox="0 0 900 400" xmlns="http://www.w3.org/2000/svg" xmlns:xlink="http://www.w3.org/1999/xlink"><style>
.plot {
  color: black;
}

@media (prefers-color-scheme: dark) {
  .plot { color: white; }
}
</style><style>:where(.plot) {
  --plot-background: white;
  display: block;
  height: auto;
  height: intrinsic;
  max-width: 100%;
}
:where(.plot text),
:where(.plot tspan) {
  white-space: pre;
}</style><g aria-label="y-grid" aria-hidden="true" stroke="currentColor" stroke-opacity="0.1"><line x1="40" x2="880" y1="370" y2="370"></line><line x1="40" x2="880" y1="326.25" y2="326.25"></line><line x1="40" x2="880" y1="282.5" y2="282.5"></line><line x1="40" x2="880" y1="238.75" y2="238.75"></line><line x1="40" x2="880" y1="195" y2="195"></line><line x1="40" x2="880" y1="151.25" y2="151.25"></line><line x1="40" x2="880" y1="107.5" y2="107.5"></line><line x1="40" x2="880" y1="63.75" y2="63.75"></line><line x1="40" x2="880" y1="20" y2="20"></line></g><g aria-label="y-axis tick" aria-hidden="true" fill="none" stroke="currentColor"><path transform="translate(40,370)" d="M0,0L-6,0"></path><path transform="translate(40,326.25)" d="M0,0L-6,0"></path><path transform="translate(40,282.5)" d="M0,0L-6,0"></path><path transform="translate(40,238.75)" d="M0,0L-6,0"></path><path transform="translate(40,195)" d="M0,0L-6,0"></path><path transform="translate(40,151.25)" d="M0,0L-6,0"></path><path transform="translate(40,107.5)" d="M0,0L-6,0"></path><path transform="translate(40,63.75)" d="M0,0L-6,0"></path><path transform="translate(40,20)" d="M0,0L-6,0"></path></g><g aria-label="y-axis tick label" text-anchor="end" font-variant="tabular-nums" transform="translate(-9,0)"><text y="0.32em" transform="translate(40,370)">0</text><text y="0.32em" transform="translate(40,326.25)">1</text><text y="0.32em" transform="translate(40,282.5)">2</text><text y="0.32em" transform="translate(40,238.75)">3</text><text y="0.32em" transform="translate(40,195)">4</text><text y="0.32em" transform="translate(40,151.25)">5</text><text y="0.32em" transform="translate(40,107.5)">6</text><text y="0.32em" transform="translate(40,63.75)">7</text><text y="0.32em" transform="translate(40,20)">8</text></g><g aria-label="x-axis tick" aria-hidden="true" fill="none" stroke="currentColor"><path transform="translate(88.44036697247707,370)" d="M0,0L0,6"></path><path transform="translate(188.6238532110092,370)" d="M0,0L0,6"></path><path transform="translate(288.8073394495413,370)" d="M0,0L0,6"></path><path transform="translate(390.091743119266,370)" d="M0,0L0,6"></path><path transform="translate(491.3761467889908,370)" d="M0,0L0,6"></path><path transform="translate(590.4587155963303,370)" d="M0,0L0,6"></path><path transform="translate(690.6422018348624,370)" d="M0,0L0,6"></path><path transform="translate(791.9266055045872,370)" d="M0,0L0,6"></path></g><g aria-label="x-axis tick label" font-variant="tabular-nums" transform="translate(0,9)"><text transform="translate(88.44036697247707,370)"><tspan x="0" y="0.71em">Jan</tspan><tspan x="0" dy="1em">2024</tspan></text><text y="0.71em" transform="translate(188.6238532110092,370)">Apr</text><text y="0.71em" transform="translate(288.8073394495413,370)">Jul</text><text y="0.71em" transform="translate(390.091743119266,370)">Oct</text><text transform="translate(491.3761467889908,370)"><tspan x="0" y="0.71em">Jan</tspan><tspan x="0" dy="1em">2025</tspan></text><text y="0.71em" transform="translate(590.4587155963303,370)">Apr</text><text y="0.71em" transform="translate(690.6422018348624,370)">Jul</text><text y="0.71em" transform="translate(791.9266055045872,370)">Oct</text></g><g aria-label="line" fill="none" stroke="steelblue" stroke-width="1.5" stroke-linejoin="round" stroke-linecap="round"><path d="M40,370L64.22,370L64.22,370L68.624,370L68.624,370L68.624,370L68.624,370L71.927,370L71.927,370L71.927,370L71.927,370L71.927,370L71.927,370L71.927,370L71.927,370L77.431,370L77.431,370L88.44,370L88.44,370L89.541,370L89.541,370L93.945,370L93.945,370L93.945,370L93.945,370L95.046,370L95.046,370L95.046,370L95.046,370L96.147,370L96.147,370L97.248,370L97.248,370L97.248,370L97.248,370L100.55,370L100.55,370L101.651,370L101.651,370L102.752,370L102.752,326.25L102.752,326.25L102.752,370L106.055,370L106.055,326.25L107.156,326.25L107.156,326.25L107.156,326.25L107.156,326.25L108.257,326.25L108.257,326.25L227.156,326.25L227.156,326.25L227.156,326.25L227.156,326.25L229.358,326.25L229.358,326.25L231.56,326.25L231.56,326.25L235.963,326.25L235.963,282.5L243.67,282.5L243.67,282.5L244.771,282.5L244.771,282.5L245.872,282.5L245.872,282.5L246.972,282.5L246.972,282.5L246.972,282.5L246.972,282.5L251.376,282.5L251.376,282.5L251.376,282.5L251.376,195L253.578,195L253.578,195L256.881,195L256.881,195L257.982,195L257.982,195L257.982,195L257.982,195L259.083,195L259.083,195L261.284,195L261.284,151.25L261.284,151.25L261.284,151.25L265.688,151.25L265.688,151.25L265.688,151.25L265.688,151.25L265.688,151.25L265.688,151.25L265.688,151.25L265.688,151.25L266.789,151.25L266.789,151.25L266.789,151.25L266.789,151.25L268.991,151.25L268.991,151.25L275.596,151.25L275.596,151.25L281.101,151.25L281.101,151.25L283.303,151.25L283.303,151.25L283.303,151.25L283.303,195L283.303,195L283.303,195L283.303,195L283.303,151.25L283.303,151.25L283.303,151.25L284.404,151.25L284.404,151.25L285.505,151.25L285.505,151.25L285.505,151.25L285.505,151.25L289.908,151.25L289.908,151.25L292.11,151.25L292.11,151.25L354.862,151.25L354.862,151.25L401.101,151.25L401.101,151.25L449.541,151.25L449.541,151.25L449.541,151.25L449.541,151.25L449.541,151.25L449.541,151.25L449.541,151.25L449.541,151.25L449.541,151.25L449.541,151.25L503.486,151.25L503.486,151.25L570.642,151.25L570.642,107.5L619.083,107.5L619.083,107.5L621.284,107.5L621.284,20L622.385,20L622.385,20L626.789,20L626.789,20L626.789,20L626.789,20L626.789,20L626.789,20L696.147,20L696.147,20L696.147,20L696.147,20L696.147,20L696.147,20L696.147,20L696.147,20L696.147,20L696.147,20L696.147,20L696.147,20L696.147,20L696.147,20L699.45,20L699.45,20L779.817,20L779.817,20L779.817,20L779.817,63.75L779.817,63.75L779.817,20L779.817,20L779.817,63.75L779.817,63.75L779.817,63.75L780.917,63.75L780.917,63.75L850.275,63.75L850.275,63.75L850.275,63.75L850.275,63.75L850.275,63.75L850.275,63.75L850.275,63.75L850.275,63.75L850.275,63.75L850.275,63.75L850.275,63.75L850.275,63.75L880,63.75L880,63.75L880,63.75L880,63.75"></path></g></svg>
