<svg class="plot" fill="currentColor" font-family="system-ui, sans-serif" font-size="10" text-anchor="middle" width="900" height="400" viewBox="0 0 900 400" xmlns="http://www.w3.org/2000/svg" xmlns:xlink="http://www.w3.org/1999/xlink"><style>
.plot {
  color: black;
}

@media (prefers-color-scheme: dark) {
  .plot { color: white; }
}
</style><style>:where(.plot) {
  --plot-background: white;
  display: block;
  height: auto;
  height: intrinsic;
  max-width: 100%;
}
:where(.plot text),
:where(.plot tspan) {
  white-space: pre;
}</style><g aria-label="y-grid" aria-hidden="true" stroke="currentColor" stroke-opacity="0.1"><line x1="40" x2="880" y1="334.92860785313616" y2="334.92860785313616"></line><line x1="40" x2="880" y1="290.308516063233" y2="290.308516063233"></line><line x1="40" x2="880" y1="245.68842427332993" y2="245.68842427332993"></line><line x1="40" x2="880" y1="201.06833248342681" y2="201.06833248342681"></line><line x1="40" x2="880" y1="156.4482406935237" y2="156.4482406935237"></line><line x1="40" x2="880" y1="111.8281489036206" y2="111.8281489036206"></line><line x1="40" x2="880" y1="67.2080571137175" y2="67.2080571137175"></line><line x1="40" x2="880" y1="22.587965323814387" y2="22.587965323814387"></line></g><g aria-label="y-axis tick" aria-hidden="true" fill="none" stroke="currentColor"><path transform="translate(40,334.92860785313616)" d="M0,0L-6,0"></path><path transform="translate(40,290.308516063233)" d="M0,0L-6,0"></path><path transform="translate(40,245.68842427332993)" d="M0,0L-6,0"></path><path transform="translate(40,201.06833248342681)" d="M0,0L-6,0"></path><path transform="translate(40,156.4482406935237)" d="M0,0L-6,0"></path><path transform="translate(40,111.8281489036206)" d="M0,0L-6,0"></path><path transform="translate(40,67.2080571137175)" d="M0,0L-6,0"></path><path transform="translate(40,22.587965323814387)" d="M0,0L-6,0"></path></g><g aria-label="y-axis tick label" text-anchor="end" font-variant="tabular-nums" transform="translate(-9,0)"><text y="0.32em" transform="translate(40,334.92860785313616)">500</text><text y="0.32em" transform="translate(40,290.308516063233)">1000</text><text y="0.32em" transform="translate(40,245.68842427332993)">1500</text><text y="0.32em" transform="translate(40,201.06833248342681)">2000</text><text y="0.32em" transform="translate(40,156.4482406935237)">2500</text><text y="0.32em" transform="translate(40,111.8281489036206)">3000</text><text y="0.32em" transform="translate(40,67.2080571137175)">3500</text><text y="0.32em" transform="translate(40,22.587965323814387)">4000</text></g><g aria-label="x-axis tick" aria-hidden="true" fill="none" stroke="currentColor"><path transform="translate(87.75193798449612,370)" d="M0,0L0,6"></path><path transform="translate(186.51162790697674,370)" d="M0,0L0,6"></path><path transform="translate(285.27131782945736,370)" d="M0,0L0,6"></path><path transform="translate(385.1162790697674,370)" d="M0,0L0,6"></path><path transform="translate(484.9612403100775,370)" d="M0,0L0,6"></path><path transform="translate(582.6356589147287,370)" d="M0,0L0,6"></path><path transform="translate(681.3953488372093,370)" d="M0,0L0,6"></path><path transform="translate(781.2403100775193,370)" d="M0,0L0,6"></path></g><g aria-label="x-axis tick label" font-variant="tabular-nums" transform="translate(0,9)"><text transform="translate(87.75193798449612,370)"><tspan x="0" y="0.71em">Jan</tspan><tspan x="0" dy="1em">2024</tspan></text><text y="0.71em" transform="translate(186.51162790697674,370)">Apr</text><text y="0.71em" transform="translate(285.27131782945736,370)">Jul</text><text y="0.71em" transform="translate(385.1162790697674,370)">Oct</text><text transform="translate(484.9612403100775,370)"><tspan x="0" y="0.71em">Jan</tspan><tspan x="0" dy="1em">2025</tspan></text><text y="0.71em" transform="translate(582.6356589147287,370)">Apr</text><text y="0.71em" transform="translate(681.3953488372093,370)">Jul</text><text y="0.71em" transform="translate(781.2403100775193,370)">Oct</text></g><g aria-label="line" fill="none" stroke="steelblue" stroke-width="1.5" stroke-linejoin="round" stroke-linecap="round"><path d="M40,311.191L63.876,311.191L63.876,310.298L68.217,310.298L68.217,311.012L68.217,311.012L68.217,312.351L71.473,312.351L71.473,245.331L71.473,245.331L71.473,254.077L71.473,254.077L71.473,255.862L71.473,255.862L71.473,303.07L76.899,303.07L76.899,244.261L87.752,244.261L87.752,370L88.837,370L88.837,368.572L93.178,368.572L93.178,361.879L93.178,361.879L93.178,364.199L94.264,364.199L94.264,358.488L94.264,358.488L94.264,361.076L95.349,361.076L95.349,353.134L96.434,353.134L96.434,349.653L96.434,349.653L96.434,350.278L99.69,350.278L99.69,349.386L100.775,349.386L100.775,349.207L101.86,349.207L101.86,344.388L101.86,344.388L101.86,346.976L105.116,346.976L105.116,342.514L106.202,342.514L106.202,325.112L106.202,325.112L106.202,327.611L107.287,327.611L107.287,324.755L224.496,324.755L224.496,323.506L224.496,323.506L224.496,324.666L226.667,324.666L226.667,321.989L228.837,321.989L228.837,316.367L233.178,316.367L233.178,313.332L240.775,313.332L240.775,311.637L241.86,311.637L241.86,304.855L242.946,304.855L242.946,297.805L244.031,297.805L244.031,297.537L244.031,297.537L244.031,297.626L248.372,297.626L248.372,291.736L248.372,291.736L248.372,291.29L250.543,291.29L250.543,290.665L253.798,290.665L253.798,266.124L254.884,266.124L254.884,254.702L254.884,254.702L254.884,263.626L255.969,263.626L255.969,247.473L258.14,247.473L258.14,234.623L258.14,234.623L258.14,238.995L262.481,238.995L262.481,223.646L262.481,223.646L262.481,225.342L262.481,225.342L262.481,228.019L262.481,228.019L262.481,234.355L263.566,234.355L263.566,224.092L263.566,224.092L263.566,225.163L265.736,225.163L265.736,223.111L272.248,223.111L272.248,223.289L277.674,223.289L277.674,190.538L279.845,190.538L279.845,152.165L279.845,152.165L279.845,161.713L279.845,161.713L279.845,163.766L279.845,163.766L279.845,170.816L279.845,170.816L279.845,184.916L280.93,184.916L280.93,153.146L282.016,153.146L282.016,149.844L282.016,149.844L282.016,150.201L286.357,150.201L286.357,150.648L288.527,150.648L288.527,129.408L350.388,129.408L350.388,128.248L395.969,128.248L395.969,125.303L443.721,125.303L443.721,114.684L443.721,114.684L443.721,114.684L443.721,114.684L443.721,114.684L443.721,114.684L443.721,114.684L443.721,114.684L443.721,120.217L496.899,120.217L496.899,113.791L563.101,113.791L563.101,105.492L610.853,105.492L610.853,91.035L613.023,91.035L613.023,86.484L614.109,86.484L614.109,92.106L618.45,92.106L618.45,48.289L618.45,48.289L618.45,48.289L618.45,48.289L618.45,57.481L686.822,57.481L686.822,44.541L686.822,44.541L686.822,47.486L686.822,47.486L686.822,47.664L686.822,47.664L686.822,47.664L686.822,47.664L686.822,47.664L686.822,47.664L686.822,47.307L686.822,47.307L686.822,47.129L690.078,47.129L690.078,42.221L769.302,42.221L769.302,40.882L769.302,40.882L769.302,40.882L769.302,40.882L769.302,41.239L769.302,41.239L769.302,41.685L769.302,41.685L769.302,41.596L770.388,41.596L770.388,40.882L838.76,40.882L838.76,40.525L838.76,40.525L838.76,40.525L838.76,40.525L838.76,40.525L838.76,40.525L838.76,40.525L838.76,40.525L838.76,40.525L838.76,40.525L838.76,40.882L868.062,40.882L868.062,40.525L877.829,40.525L877.829,39.365L877.829,39.365L877.829,40.971L877.829,40.971L877.829,40.793L877.829,40.793L877.829,38.383L880,38.383L880,20L880,20L880,22.588L880,22.588L880,22.588L880,22.588L880,22.588"></path></g></svg>
