<svg class="plot" fill="currentColor" font-family="system-ui, sans-serif" font-size="10" text-anchor="middle" width="900" height="400" viewBox="0 0 900 400" xmlns="http://www.w3.org/2000/svg" xmlns:xlink="http://www.w3.org/1999/xlink"><style>
.plot {
  color: black;
}

@media (prefers-color-scheme: dark) {
  .plot { color: white; }
}
</style><style>:where(.plot) {
  --plot-background: white;
  display: block;
  height: auto;
  height: intrinsic;
  max-width: 100%;
}
:where(.plot text),
:where(.plot tspan) {
  white-space: pre;
}</style><g aria-label="y-grid" aria-hidden="true" stroke="currentColor" stroke-opacity="0.1"><line x1="40" x2="880" y1="370" y2="370"></line><line x1="40" x2="880" y1="335" y2="335"></line><line x1="40" x2="880" y1="300" y2="300"></line><line x1="40" x2="880" y1="265" y2="265"></line><line x1="40" x2="880" y1="230" y2="230"></line><line x1="40" x2="880" y1="195" y2="195"></line><line x1="40" x2="880" y1="160" y2="160"></line><line x1="40" x2="880" y1="125.00000000000001" y2="125.00000000000001"></line><line x1="40" x2="880" y1="89.99999999999999" y2="89.99999999999999"></line><line x1="40" x2="880" y1="54.99999999999999" y2="54.99999999999999"></line><line x1="40" x2="880" y1="20" y2="20"></line></g><g aria-label="y-axis tick" aria-hidden="true" fill="none" stroke="currentColor"><path transform="translate(40,370)" d="M0,0L-6,0"></path><path transform="translate(40,335)" d="M0,0L-6,0"></path><path transform="translate(40,300)" d="M0,0L-6,0"></path><path transform="translate(40,265)" d="M0,0L-6,0"></path><path transform="translate(40,230)" d="M0,0L-6,0"></path><path transform="translate(40,195)" d="M0,0L-6,0"></path><path transform="translate(40,160)" d="M0,0L-6,0"></path><path transform="translate(40,125.00000000000001)" d="M0,0L-6,0"></path><path transform="translate(40,89.99999999999999)" d="M0,0L-6,0"></path><path transform="translate(40,54.99999999999999)" d="M0,0L-6,0"></path><path transform="translate(40,20)" d="M0,0L-6,0"></path></g><g aria-label="y-axis tick label" text-anchor="end" font-variant="tabular-nums" transform="translate(-9,0)"><text y="0.32em" transform="translate(40,370)">0</text><text y="0.32em" transform="translate(40,335)">1</text><text y="0.32em" transform="translate(40,300)">2</text><text y="0.32em" transform="translate(40,265)">3</text><text y="0.32em" transform="translate(40,230)">4</text><text y="0.32em" transform="translate(40,195)">5</text><text y="0.32em" transform="translate(40,160)">6</text><text y="0.32em" transform="translate(40,125.00000000000001)">7</text><text y="0.32em" transform="translate(40,89.99999999999999)">8</text><text y="0.32em" transform="translate(40,54.99999999999999)">9</text><text y="0.32em" transform="translate(40,20)">10</text></g><g aria-label="x-axis tick" aria-hidden="true" fill="none" stroke="currentColor"><path transform="translate(87.75193798449612,370)" d="M0,0L0,6"></path><path transform="translate(186.51162790697674,370)" d="M0,0L0,6"></path><path transform="translate(285.27131782945736,370)" d="M0,0L0,6"></path><path transform="translate(385.1162790697674,370)" d="M0,0L0,6"></path><path transform="translate(484.9612403100775,370)" d="M0,0L0,6"></path><path transform="translate(582.6356589147287,370)" d="M0,0L0,6"></path><path transform="translate(681.3953488372093,370)" d="M0,0L0,6"></path><path transform="translate(781.2403100775193,370)" d="M0,0L0,6"></path></g><g aria-label="x-axis tick label" font-variant="tabular-nums" transform="translate(0,9)"><text transform="translate(87.75193798449612,370)"><tspan x="0" y="0.71em">Jan</tspan><tspan x="0" dy="1em">2024</tspan></text><text y="0.71em" transform="translate(186.51162790697674,370)">Apr</text><text y="0.71em" transform="translate(285.27131782945736,370)">Jul</text><text y="0.71em" transform="translate(385.1162790697674,370)">Oct</text><text transform="translate(484.9612403100775,370)"><tspan x="0" y="0.71em">Jan</tspan><tspan x="0" dy="1em">2025</tspan></text><text y="0.71em" transform="translate(582.6356589147287,370)">Apr</text><text y="0.71em" transform="translate(681.3953488372093,370)">Jul</text><text y="0.71em" transform="translate(781.2403100775193,370)">Oct</text></g><g aria-label="line" fill="none" stroke="steelblue" stroke-width="1.5" stroke-linejoin="round" stroke-linecap="round"><path d="M40,370L63.876,370L63.876,370L68.217,370L68.217,370L68.217,370L68.217,370L71.473,370L71.473,370L71.473,370L71.473,370L71.473,370L71.473,370L71.473,370L71.473,370L76.899,370L76.899,370L87.752,370L87.752,370L88.837,370L88.837,370L93.178,370L93.178,370L93.178,370L93.178,370L94.264,370L94.264,370L94.264,370L94.264,370L95.349,370L95.349,370L96.434,370L96.434,370L96.434,370L96.434,370L99.69,370L99.69,370L100.775,370L100.775,370L101.86,370L101.86,335L101.86,335L101.86,370L105.116,370L105.116,335L106.202,335L106.202,335L106.202,335L106.202,335L107.287,335L107.287,335L224.496,335L224.496,335L224.496,335L224.496,335L226.667,335L226.667,335L228.837,335L228.837,335L233.178,335L233.178,300L240.775,300L240.775,300L241.86,300L241.86,300L242.946,300L242.946,300L244.031,300L244.031,300L244.031,300L244.031,300L248.372,300L248.372,300L248.372,300L248.372,230L250.543,230L250.543,230L253.798,230L253.798,230L254.884,230L254.884,230L254.884,230L254.884,230L255.969,230L255.969,230L258.14,230L258.14,195L258.14,195L258.14,195L262.481,195L262.481,195L262.481,195L262.481,195L262.481,195L262.481,195L262.481,195L262.481,195L263.566,195L263.566,195L263.566,195L263.566,195L265.736,195L265.736,195L272.248,195L272.248,195L277.674,195L277.674,195L279.845,195L279.845,230L279.845,230L279.845,195L279.845,195L279.845,230L279.845,230L279.845,195L279.845,195L279.845,195L280.93,195L280.93,195L282.016,195L282.016,195L282.016,195L282.016,195L286.357,195L286.357,195L288.527,195L288.527,195L350.388,195L350.388,195L395.969,195L395.969,195L443.721,195L443.721,195L443.721,195L443.721,195L443.721,195L443.721,195L443.721,195L443.721,195L443.721,195L443.721,195L496.899,195L496.899,195L563.101,195L563.101,160L610.853,160L610.853,160L613.023,160L613.023,90L614.109,90L614.109,90L618.45,90L618.45,90L618.45,90L618.45,90L618.45,90L618.45,90L686.822,90L686.822,90L686.822,90L686.822,90L686.822,90L686.822,90L686.822,90L686.822,90L686.822,90L686.822,90L686.822,90L686.822,90L686.822,90L686.822,90L690.078,90L690.078,90L769.302,90L769.302,125L769.302,125L769.302,90L769.302,90L769.302,125L769.302,125L769.302,90L769.302,90L769.302,125L770.388,125L770.388,125L838.76,125L838.76,125L838.76,125L838.76,125L838.76,125L838.76,125L838.76,125L838.76,125L838.76,125L838.76,125L838.76,125L838.76,125L868.062,125L868.062,125L877.829,125L877.829,125L877.829,125L877.829,125L877.829,125L877.829,125L877.829,125L877.829,125L880,125L880,20L880,20L880,20L880,20L880,20L880,20L880,20"></path></g></svg>
