<svg class="plot" fill="currentColor" font-family="system-ui, sans-serif" font-size="10" text-anchor="middle" width="900" height="400" viewBox="0 0 900 400" xmlns="http://www.w3.org/2000/svg" xmlns:xlink="http://www.w3.org/1999/xlink"><style>
.plot {
  color: black;
}

@media (prefers-color-scheme: dark) {
  .plot { color: white; }
}
</style><style>:where(.plot) {
  --plot-background: white;
  display: block;
  height: auto;
  height: intrinsic;
  max-width: 100%;
}
:where(.plot text),
:where(.plot tspan) {
  white-space: pre;
}</style><g aria-label="y-grid" aria-hidden="true" stroke="currentColor" stroke-opacity="0.1"><line x1="40" x2="880" y1="370" y2="370"></line><line x1="40" x2="880" y1="326.25" y2="326.25"></line><line x1="40" x2="880" y1="282.5" y2="282.5"></line><line x1="40" x2="880" y1="238.75" y2="238.75"></line><line x1="40" x2="880" y1="195" y2="195"></line><line x1="40" x2="880" y1="151.25" y2="151.25"></line><line x1="40" x2="880" y1="107.5" y2="107.5"></line><line x1="40" x2="880" y1="63.75" y2="63.75"></line><line x1="40" x2="880" y1="20" y2="20"></line></g><g aria-label="y-axis tick" aria-hidden="true" fill="none" stroke="currentColor"><path transform="translate(40,370)" d="M0,0L-6,0"></path><path transform="translate(40,326.25)" d="M0,0L-6,0"></path><path transform="translate(40,282.5)" d="M0,0L-6,0"></path><path transform="translate(40,238.75)" d="M0,0L-6,0"></path><path transform="translate(40,195)" d="M0,0L-6,0"></path><path transform="translate(40,151.25)" d="M0,0L-6,0"></path><path transform="translate(40,107.5)" d="M0,0L-6,0"></path><path transform="translate(40,63.75)" d="M0,0L-6,0"></path><path transform="translate(40,20)" d="M0,0L-6,0"></path></g><g aria-label="y-axis tick label" text-anchor="end" font-variant="tabular-nums" transform="translate(-9,0)"><text y="0.32em" transform="translate(40,370)">0</text><text y="0.32em" transform="translate(40,326.25)">1</text><text y="0.32em" transform="translate(40,282.5)">2</text><text y="0.32em" transform="translate(40,238.75)">3</text><text y="0.32em" transform="translate(40,195)">4</text><text y="0.32em" transform="translate(40,151.25)">5</text><text y="0.32em" transform="translate(40,107.5)">6</text><text y="0.32em" transform="translate(40,63.75)">7</text><text y="0.32em" transform="translate(40,20)">8</text></g><g aria-label="x-axis tick" aria-hidden="true" fill="none" stroke="currentColor"><path transform="translate(87.8137128072445,370)" d="M0,0L0,6"></path><path transform="translate(186.7011642949547,370)" d="M0,0L0,6"></path><path transform="translate(285.58861578266493,370)" d="M0,0L0,6"></path><path transform="translate(385.5627425614489,370)" d="M0,0L0,6"></path><path transform="translate(485.5368693402328,370)" d="M0,0L0,6"></path><path transform="translate(583.3376455368692,370)" d="M0,0L0,6"></path><path transform="translate(682.2250970245796,370)" d="M0,0L0,6"></path><path transform="translate(782.1992238033636,370)" d="M0,0L0,6"></path></g><g aria-label="x-axis tick label" font-variant="tabular-nums" transform="translate(0,9)"><text transform="translate(87.8137128072445,370)"><tspan x="0" y="0.71em">Jan</tspan><tspan x="0" dy="1em">2024</tspan></text><text y="0.71em" transform="translate(186.7011642949547,370)">Apr</text><text y="0.71em" transform="translate(285.58861578266493,370)">Jul</text><text y="0.71em" transform="translate(385.5627425614489,370)">Oct</text><text transform="translate(485.5368693402328,370)"><tspan x="0" y="0.71em">Jan</tspan><tspan x="0" dy="1em">2025</tspan></text><text y="0.71em" transform="translate(583.3376455368692,370)">Apr</text><text y="0.71em" transform="translate(682.2250970245796,370)">Jul</text><text y="0.71em" transform="translate(782.1992238033636,370)">Oct</text></g><g aria-label="line" fill="none" stroke="steelblue" stroke-width="1.5" stroke-linejoin="round" stroke-linecap="round"><path d="M40,370L63.907,370L63.907,370L68.254,370L68.254,370L68.254,370L68.254,370L71.514,370L71.514,370L71.514,370L71.514,370L71.514,370L71.514,370L71.514,370L71.514,370L76.947,370L76.947,370L87.814,370L87.814,370L88.9,370L88.9,370L93.247,370L93.247,370L93.247,370L93.247,370L94.334,370L94.334,370L94.334,370L94.334,370L95.42,370L95.42,370L96.507,370L96.507,370L96.507,370L96.507,370L99.767,370L99.767,370L100.854,370L100.854,370L101.94,370L101.94,370L101.94,370L101.94,326.25L105.201,326.25L105.201,326.25L106.287,326.25L106.287,326.25L106.287,326.25L106.287,326.25L107.374,326.25L107.374,326.25L224.735,326.25L224.735,326.25L224.735,326.25L224.735,326.25L226.908,326.25L226.908,326.25L229.082,326.25L229.082,326.25L233.428,326.25L233.428,282.5L241.035,282.5L241.035,282.5L242.122,282.5L242.122,282.5L243.208,282.5L243.208,282.5L244.295,282.5L244.295,282.5L244.295,282.5L244.295,282.5L248.642,282.5L248.642,195L248.642,195L248.642,282.5L250.815,282.5L250.815,195L254.075,195L254.075,195L255.162,195L255.162,195L255.162,195L255.162,195L256.248,195L256.248,195L258.422,195L258.422,151.25L258.422,151.25L258.422,151.25L262.768,151.25L262.768,151.25L262.768,151.25L262.768,151.25L262.768,151.25L262.768,151.25L262.768,151.25L262.768,151.25L263.855,151.25L263.855,151.25L263.855,151.25L263.855,151.25L266.028,151.25L266.028,151.25L272.549,151.25L272.549,151.25L277.982,151.25L277.982,151.25L280.155,151.25L280.155,195L280.155,195L280.155,195L280.155,195L280.155,151.25L280.155,151.25L280.155,151.25L280.155,151.25L280.155,151.25L281.242,151.25L281.242,151.25L282.329,151.25L282.329,151.25L282.329,151.25L282.329,151.25L286.675,151.25L286.675,151.25L288.849,151.25L288.849,151.25L350.789,151.25L350.789,151.25L396.429,151.25L396.429,151.25L444.243,151.25L444.243,151.25L444.243,151.25L444.243,151.25L444.243,151.25L444.243,151.25L444.243,151.25L444.243,151.25L444.243,151.25L444.243,151.25L497.49,151.25L497.49,151.25L563.777,151.25L563.777,107.5L611.591,107.5L611.591,107.5L613.765,107.5L613.765,20L614.851,20L614.851,20L619.198,20L619.198,20L619.198,20L619.198,20L619.198,20L619.198,20L687.658,20L687.658,20L687.658,20L687.658,20L687.658,20L687.658,20L687.658,20L687.658,20L687.658,20L687.658,20L687.658,20L687.658,20L687.658,20L687.658,20L690.918,20L690.918,20L770.246,20L770.246,20L770.246,20L770.246,63.75L770.246,63.75L770.246,63.75L770.246,63.75L770.246,63.75L770.246,63.75L770.246,20L771.332,20L771.332,63.75L839.793,63.75L839.793,63.75L839.793,63.75L839.793,63.75L839.793,63.75L839.793,63.75L839.793,63.75L839.793,63.75L839.793,63.75L839.793,63.75L839.793,63.75L839.793,63.75L869.133,63.75L869.133,63.75L878.913,63.75L878.913,63.75L878.913,63.75L878.913,63.75L878.913,63.75L878.913,63.75L878.913,63.75L878.913,63.75L880,63.75L880,63.75"></path></g></svg>
