<svg class="plot" fill="currentColor" font-family="system-ui, sans-serif" font-size="10" text-anchor="middle" width="900" height="400" viewBox="0 0 900 400" xmlns="http://www.w3.org/2000/svg" xmlns:xlink="http://www.w3.org/1999/xlink"><style>
.plot {
  color: black;
}

@media (prefers-color-scheme: dark) {
  .plot { color: white; }
}
</style><style>:where(.plot) {
  --plot-background: white;
  display: block;
  height: auto;
  height: intrinsic;
  max-width: 100%;
}
:where(.plot text),
:where(.plot tspan) {
  white-space: pre;
}</style><g aria-label="y-grid" aria-hidden="true" stroke="currentColor" stroke-opacity="0.1"><line x1="40" x2="880" y1="332.7437703141929" y2="332.7437703141929"></line><line x1="40" x2="880" y1="285.3439869989166" y2="285.3439869989166"></line><line x1="40" x2="880" y1="237.9442036836403" y2="237.9442036836403"></line><line x1="40" x2="880" y1="190.54442036836406" y2="190.54442036836406"></line><line x1="40" x2="880" y1="143.14463705308776" y2="143.14463705308776"></line><line x1="40" x2="880" y1="95.7448537378115" y2="95.7448537378115"></line><line x1="40" x2="880" y1="48.345070422535215" y2="48.345070422535215"></line></g><g aria-label="y-axis tick" aria-hidden="true" fill="none" stroke="currentColor"><path transform="translate(40,332.7437703141929)" d="M0,0L-6,0"></path><path transform="translate(40,285.3439869989166)" d="M0,0L-6,0"></path><path transform="translate(40,237.9442036836403)" d="M0,0L-6,0"></path><path transform="translate(40,190.54442036836406)" d="M0,0L-6,0"></path><path transform="translate(40,143.14463705308776)" d="M0,0L-6,0"></path><path transform="translate(40,95.7448537378115)" d="M0,0L-6,0"></path><path transform="translate(40,48.345070422535215)" d="M0,0L-6,0"></path></g><g aria-label="y-axis tick label" text-anchor="end" font-variant="tabular-nums" transform="translate(-9,0)"><text y="0.32em" transform="translate(40,332.7437703141929)">500</text><text y="0.32em" transform="translate(40,285.3439869989166)">1000</text><text y="0.32em" transform="translate(40,237.9442036836403)">1500</text><text y="0.32em" transform="translate(40,190.54442036836406)">2000</text><text y="0.32em" transform="translate(40,143.14463705308776)">2500</text><text y="0.32em" transform="translate(40,95.7448537378115)">3000</text><text y="0.32em" transform="translate(40,48.345070422535215)">3500</text></g><g aria-label="x-axis tick" aria-hidden="true" fill="none" stroke="currentColor"><path transform="translate(88.44036697247707,370)" d="M0,0L0,6"></path><path transform="translate(188.6238532110092,370)" d="M0,0L0,6"></path><path transform="translate(288.8073394495413,370)" d="M0,0L0,6"></path><path transform="translate(390.091743119266,370)" d="M0,0L0,6"></path><path transform="translate(491.3761467889908,370)" d="M0,0L0,6"></path><path transform="translate(590.4587155963303,370)" d="M0,0L0,6"></path><path transform="translate(690.6422018348624,370)" d="M0,0L0,6"></path><path transform="translate(791.9266055045872,370)" d="M0,0L0,6"></path></g><g aria-label="x-axis tick label" font-variant="tabular-nums" transform="translate(0,9)"><text transform="translate(88.44036697247707,370)"><tspan x="0" y="0.71em">Jan</tspan><tspan x="0" dy="1em">2024</tspan></text><text y="0.71em" transform="translate(188.6238532110092,370)">Apr</text><text y="0.71em" transform="translate(288.8073394495413,370)">Jul</text><text y="0.71em" transform="translate(390.091743119266,370)">Oct</text><text transform="translate(491.3761467889908,370)"><tspan x="0" y="0.71em">Jan</tspan><tspan x="0" dy="1em">2025</tspan></text><text y="0.71em" transform="translate(590.4587155963303,370)">Apr</text><text y="0.71em" transform="translate(690.6422018348624,370)">Jul</text><text y="0.71em" transform="translate(791.9266055045872,370)">Oct</text></g><g aria-label="line" fill="none" stroke="steelblue" stroke-width="1.5" stroke-linejoin="round" stroke-linecap="round"><path d="M40,307.527L64.22,307.527L64.22,306.579L68.624,306.579L68.624,307.337L68.624,307.337L68.624,308.759L71.927,308.759L71.927,237.565L71.927,237.565L71.927,298.9L71.927,298.9L71.927,246.855L71.927,246.855L71.927,248.751L77.431,248.751L77.431,236.427L88.44,236.427L88.44,370L89.541,370L89.541,368.483L93.945,368.483L93.945,363.838L93.945,363.838L93.945,361.373L95.046,361.373L95.046,357.771L95.046,357.771L95.046,360.52L96.147,360.52L96.147,352.083L97.248,352.083L97.248,348.386L97.248,348.386L97.248,349.049L100.55,349.049L100.55,348.101L101.651,348.101L101.651,347.912L102.752,347.912L102.752,342.793L102.752,342.793L102.752,345.542L106.055,345.542L106.055,340.802L107.156,340.802L107.156,322.316L107.156,322.316L107.156,324.97L108.257,324.97L108.257,321.937L227.156,321.937L227.156,321.842L227.156,321.842L227.156,320.609L229.358,320.609L229.358,318.998L231.56,318.998L231.56,313.025L235.963,313.025L235.963,309.802L243.67,309.802L243.67,308.001L244.771,308.001L244.771,300.796L245.872,300.796L245.872,293.307L246.972,293.307L246.972,293.118L246.972,293.118L246.972,293.023L251.376,293.023L251.376,286.861L251.376,286.861L251.376,286.387L253.578,286.387L253.578,285.723L256.881,285.723L256.881,259.653L257.982,259.653L257.982,247.519L257.982,247.519L257.982,256.999L259.083,256.999L259.083,239.84L261.284,239.84L261.284,226.189L261.284,226.189L261.284,230.834L265.688,230.834L265.688,219.174L265.688,219.174L265.688,225.905L265.688,225.905L265.688,216.33L265.688,216.33L265.688,214.529L266.789,214.529L266.789,215.003L266.789,215.003L266.789,216.14L268.991,216.14L268.991,213.96L275.596,213.96L275.596,214.15L281.101,214.15L281.101,179.358L283.303,179.358L283.303,150.918L283.303,150.918L283.303,158.407L283.303,158.407L283.303,148.738L283.303,148.738L283.303,173.386L283.303,173.386L283.303,138.594L284.404,138.594L284.404,139.637L285.505,139.637L285.505,136.509L285.505,136.509L285.505,136.129L289.908,136.129L289.908,136.983L292.11,136.983L292.11,114.42L354.862,114.42L354.862,113.188L401.101,113.188L401.101,110.06L449.541,110.06L449.541,98.778L449.541,98.778L449.541,98.778L449.541,98.778L449.541,98.778L449.541,98.778L449.541,98.778L449.541,98.778L449.541,104.656L503.486,104.656L503.486,97.83L570.642,97.83L570.642,89.014L619.083,89.014L619.083,73.657L621.284,73.657L621.284,68.822L622.385,68.822L622.385,74.794L626.789,74.794L626.789,28.248L626.789,28.248L626.789,28.248L626.789,28.248L626.789,38.012L696.147,38.012L696.147,27.584L696.147,27.584L696.147,24.266L696.147,24.266L696.147,27.584L696.147,27.584L696.147,27.394L696.147,27.394L696.147,27.584L696.147,27.584L696.147,27.015L696.147,27.015L696.147,27.205L699.45,27.205L699.45,21.801L779.817,21.801L779.817,20.379L779.817,20.379L779.817,21.232L779.817,21.232L779.817,20.758L779.817,20.758L779.817,21.138L779.817,21.138L779.817,20.379L780.917,20.379L780.917,20.379L850.275,20.379L850.275,20L850.275,20L850.275,20L850.275,20L850.275,20L850.275,20L850.275,20.379L850.275,20.379L850.275,20L850.275,20L850.275,20L880,20L880,20L880,20L880,20"></path></g></svg>
